<svg width="451" height="413" viewBox="0 0 451 413" fill="none" xmlns="http://www.w3.org/2000/svg">
<path fill-rule="evenodd" clip-rule="evenodd" d="M106.677 0.521774C105.699 1.50077 105.839 128.867 106.819 128.867C107.269 128.867 110.532 126.621 114.069 123.876C117.605 121.131 121.024 118.881 121.666 118.876C122.307 118.871 122.982 118.494 123.166 118.038C123.577 117.017 135.739 109.867 137.066 109.867C137.594 109.867 138.808 109.47 139.763 108.984C140.718 108.498 142.624 107.66 143.999 107.122C145.374 106.584 148.202 105.407 150.283 104.506C152.364 103.604 154.839 102.853 155.783 102.835C156.727 102.818 158.399 102.123 159.499 101.292C161.41 99.8468 161.503 98.5488 161.596 71.9758C161.649 56.6828 162.013 43.6528 162.405 43.0188C162.924 42.1798 174.166 41.8688 203.808 41.8748C243.343 41.8818 260.272 42.7398 262.375 44.8428C262.938 45.4058 264.44 45.8668 265.713 45.8668C266.985 45.8668 268.808 46.2578 269.763 46.7358C270.718 47.2138 273.974 48.8378 276.999 50.3448C287.667 55.6588 297.407 64.5958 302.749 73.9718C303.986 76.1438 304.999 78.5838 304.999 79.3938C304.999 80.2038 305.449 80.8668 305.999 80.8668C306.549 80.8668 306.999 81.3608 306.999 81.9658C306.999 82.5698 307.639 84.4828 308.421 86.2158C310.907 91.7238 311.55 98.1788 310.445 106.529L309.761 111.692L314.13 114.429C316.533 115.934 318.724 117.443 318.999 117.781C319.274 118.119 323.099 121.089 327.499 124.381C337.238 131.669 339.839 134.148 343.405 139.542C346.168 143.721 348.999 145.807 348.999 143.664C348.999 143.037 349.747 141.698 350.66 140.689C353.255 137.822 359.999 124.92 359.999 122.824C359.999 122.283 360.396 121.058 360.881 120.103C364.38 113.218 365.82 95.5508 364.037 81.3668C361.678 62.5998 362.136 64.7128 358.786 57.1168C354.953 48.4228 346.044 36.7148 336.61 27.9708C334.471 25.9888 332.14 23.8048 331.431 23.1168C330.722 22.4298 329.855 21.8668 329.504 21.8668C329.153 21.8668 327.433 20.8068 325.682 19.5108C323.931 18.2158 320.474 16.0778 317.999 14.7608C315.524 13.4438 313.274 12.1328 312.999 11.8478C312.724 11.5628 309.349 10.2658 305.499 8.96577C301.649 7.66577 297.599 6.05277 296.499 5.38177C295.399 4.70977 292.249 3.86977 289.499 3.51477C286.749 3.15877 281.799 2.34778 278.499 1.71178C271.888 0.437777 107.897 -0.698226 106.677 0.521774ZM90.4693 78.4338C80.4613 83.7548 76.2373 86.2628 68.0773 91.7268C63.4463 94.8288 58.6613 97.9288 57.4463 98.6148C53.6633 100.751 29.3453 125.356 26.4503 129.978C24.9373 132.392 23.4083 134.592 23.0513 134.867C21.5403 136.032 17.5593 142.478 12.1963 152.446C9.66829 157.144 6.56828 164.523 6.42428 166.184C6.33728 167.183 5.75628 168.51 5.13228 169.134C4.50928 169.757 3.99928 171.5 3.99928 173.008C3.99928 174.516 3.54928 176.027 2.99928 176.367C2.44928 176.707 1.99928 178.957 1.99928 181.367C1.99928 183.777 1.54928 186.027 0.999281 186.367C-0.262719 187.147 -0.363722 227.524 0.893278 228.302C1.38528 228.606 2.03528 230.545 2.33728 232.611C3.33228 239.421 4.25128 243.124 5.58328 245.691C6.30528 247.084 6.65128 248.622 6.35028 249.108C6.04928 249.595 6.42928 250.752 7.19428 251.68C7.95928 252.608 9.07128 254.492 9.66528 255.867C12.5543 262.552 15.4583 268.003 16.6633 269.003C17.3983 269.613 17.9993 270.538 17.9993 271.059C17.9993 272.112 23.7603 280.797 25.5003 282.367C26.1093 282.917 28.5643 285.972 30.9553 289.155C36.0703 295.967 48.3443 307.725 57.2143 314.311C60.6713 316.878 64.2923 319.628 65.2603 320.423C66.2293 321.217 67.3593 321.867 67.7713 321.867C68.1823 321.867 69.7333 322.992 71.2163 324.367C72.6983 325.742 74.6063 326.867 75.4553 326.867C76.3043 326.867 77.0033 327.204 77.0073 327.617C77.0113 328.03 78.0243 328.875 79.2573 329.495C80.4903 330.116 84.6133 332.233 88.4203 334.199C92.2273 336.165 95.7143 337.543 96.1703 337.261C96.6263 336.98 96.9993 323.811 96.9993 307.998V279.247L90.2693 274.807C78.0973 266.776 58.9993 249.933 58.9993 247.229C58.9993 246.572 58.6453 245.884 58.2133 245.7C55.6543 244.615 45.9993 226.967 45.9993 223.374C45.9993 222.215 45.4693 220.737 44.8213 220.089C43.3853 218.653 43.5753 195.891 45.0353 194.431C45.5653 193.901 45.9993 192.426 45.9993 191.153C45.9993 189.881 46.3973 188.058 46.8843 187.103C47.3713 186.148 49.0573 182.749 50.6313 179.548C52.2053 176.348 54.2823 173.016 55.2463 172.143C56.2103 171.271 56.9993 170.025 56.9993 169.374C56.9993 166.976 79.6163 146.31 88.1983 140.867L96.8693 135.367L96.9343 106.176C96.9703 90.1208 96.6033 76.7398 96.1193 76.4408C95.6353 76.1418 93.0933 77.0388 90.4693 78.4338ZM372.21 98.0648C371.904 110.99 369.384 121.288 363.882 132.103C363.396 133.058 362.999 134.521 362.999 135.353C362.999 136.186 362.549 136.867 361.999 136.867C359.966 136.867 361.086 139.876 363.749 141.571C365.261 142.533 366.724 143.567 366.999 143.867C367.274 144.167 368.811 145.25 370.415 146.272C375.318 149.397 393.999 168.194 393.999 170.002C393.999 170.936 394.402 171.85 394.893 172.034C396.756 172.728 404.253 187.035 405.549 192.367C406.906 197.953 407.187 216.225 405.978 220.367C404.177 226.542 396.221 241.76 392.278 246.571L388.737 250.893L390.5 255.63C391.469 258.235 392.653 260.794 393.13 261.317C393.608 261.839 393.999 263.95 393.999 266.008C393.999 268.066 394.386 269.988 394.86 270.281C396.911 271.549 397.915 292.488 396.499 304.489C396.038 308.398 396.151 310.843 396.81 311.25C398.28 312.159 417.527 292.864 424.571 283.418C430.773 275.102 435.968 266.79 438.666 260.867C439.542 258.942 441.101 255.637 442.129 253.522C443.158 251.408 443.999 249.039 443.999 248.259C443.999 247.478 444.417 246.058 444.927 245.103C446.476 242.204 448.999 233.149 448.999 230.488C448.999 229.111 449.449 227.707 449.999 227.367C450.611 226.989 450.999 219.043 450.999 206.867C450.999 194.691 450.611 186.745 449.999 186.367C449.449 186.027 448.992 184.538 448.984 183.058C448.968 180.164 445.854 169.388 444.7 168.234C444.314 167.849 443.999 166.703 443.999 165.687C443.999 164.671 443.577 163.058 443.061 162.103C442.546 161.148 440.568 157.217 438.667 153.367C433.116 142.125 430.684 137.867 429.813 137.867C429.366 137.867 428.999 137.192 428.999 136.367C428.999 135.542 428.609 134.867 428.132 134.867C427.655 134.867 426.012 132.974 424.481 130.66C417.557 120.197 401.439 104.716 387.215 94.8668C383.641 92.3918 379.317 89.3798 377.608 88.1748C375.898 86.9688 374.049 85.9578 373.499 85.9278C372.899 85.8948 372.383 90.7488 372.21 98.0648ZM193.805 104.394C193.464 104.735 190.781 105.413 187.842 105.9C177.198 107.664 173.459 108.52 171.315 109.683C170.113 110.334 168.066 110.867 166.765 110.867C165.464 110.867 163.972 111.225 163.449 111.663C162.927 112.101 160.699 113.03 158.499 113.729C152.744 115.556 151.344 116.159 142.999 120.394C131.726 126.115 128.741 127.844 125.999 130.243C124.624 131.446 121.249 133.987 118.499 135.889C107.828 143.27 96.4933 157.142 89.9173 170.867C88.7313 173.342 87.3643 176.148 86.8803 177.103C86.3953 178.058 85.9993 179.521 85.9993 180.353C85.9993 181.186 85.5493 181.867 84.9993 181.867C84.4493 181.867 83.9993 183.802 83.9993 186.167C83.9993 188.532 83.5243 190.942 82.9453 191.521C82.2613 192.205 82.0513 197.459 82.3493 206.471C82.8443 221.485 83.6933 228.56 85.1053 229.432C85.5973 229.736 85.9993 230.865 85.9993 231.94C85.9993 233.015 86.4493 234.788 86.9993 235.881C87.5493 236.973 88.3773 238.655 88.8393 239.617C94.8333 252.105 106.181 264.017 117.895 270.117C121.856 272.179 125.75 273.867 126.548 273.867C127.346 273.867 127.999 274.317 127.999 274.867C127.999 275.417 129.322 275.867 130.94 275.867C132.558 275.867 134.159 276.317 134.499 276.867C134.839 277.417 136.103 277.874 137.308 277.882C138.513 277.89 141.453 278.577 143.841 279.408C146.229 280.24 152.979 281.377 158.841 281.934C164.703 282.491 170.399 283.377 171.499 283.902C172.665 284.459 197.479 285.029 230.999 285.27C262.624 285.497 290.974 286.122 293.999 286.658C304.995 288.607 310.268 291.218 316.051 297.576C319.469 301.334 319.502 301.345 319.834 298.867C320.018 297.492 320.58 295.94 321.084 295.417C322.275 294.181 322.264 284.381 321.067 280.438C320.554 278.749 319.562 275.342 318.863 272.867C316.576 264.772 309.816 254.826 302.129 248.247C297.654 244.416 286.562 238.867 283.381 238.867C282.136 238.867 280.839 238.417 280.499 237.867C280.1 237.221 261.717 236.867 228.624 236.867C177.625 236.867 169.101 236.41 162.348 233.312C160.615 232.517 158.692 231.867 158.076 231.867C155.759 231.867 146.064 220.882 143.571 215.431C141.308 210.484 140.999 208.494 140.999 198.884C140.999 192.877 141.512 186.702 142.14 185.164C144.963 178.24 146.168 176.056 149.738 171.391C156.954 161.963 173.567 151.932 182.049 151.882C183.451 151.874 185.026 151.463 185.549 150.969C186.071 150.476 188.524 149.792 190.999 149.451C215.168 146.117 228.162 145.693 244.999 147.692C250.774 148.378 257.749 149.189 260.499 149.495C263.249 149.801 265.927 150.46 266.449 150.959C266.971 151.458 268.44 151.867 269.713 151.867C270.985 151.867 272.808 152.296 273.763 152.82C274.718 153.345 278.312 155.013 281.749 156.528C285.187 158.044 287.999 159.64 287.999 160.075C287.999 160.511 288.586 160.867 289.303 160.867C290.02 160.867 292.122 162.431 293.975 164.342C297.212 167.682 297.613 167.813 304.22 167.691C308.242 167.617 311.574 168.042 312.247 168.715C312.881 169.349 314.632 169.867 316.14 169.867C317.648 169.867 319.159 170.317 319.499 170.867C319.839 171.417 320.978 171.867 322.03 171.867C324.715 171.867 334.101 176.153 339.401 179.799C341.853 181.487 344.155 182.867 344.517 182.867C345.326 182.867 344.08 175.113 342.875 172.655C342.393 171.672 341.549 169.973 340.999 168.881C340.449 167.788 339.999 165.988 339.999 164.881C339.999 163.773 339.549 162.867 338.999 162.867C338.449 162.867 337.999 161.967 337.999 160.867C337.999 159.767 337.662 158.862 337.249 158.856C336.836 158.849 335.646 157.064 334.604 154.889C333.562 152.713 331.943 150.11 331.006 149.105C330.069 148.099 329.121 146.788 328.9 146.192C327.98 143.708 320.993 137.04 314.477 132.427C310.639 129.711 307.274 127.236 306.999 126.927C305.196 124.906 286.839 116.108 279.499 113.746C277.299 113.038 275.072 112.101 274.549 111.663C274.027 111.225 272.534 110.867 271.233 110.867C269.932 110.867 267.885 110.334 266.683 109.683C265.482 109.031 262.474 108.111 259.999 107.637C257.524 107.163 253.249 106.288 250.499 105.692C245.1 104.522 194.827 103.372 193.805 104.394ZM248.499 175.886C240.799 176.291 217.053 176.678 195.73 176.745L156.961 176.867L157.23 199.617L157.499 222.367L219.999 222.867C281.625 223.36 282.588 223.398 288.883 225.618C295.476 227.943 300.499 231.522 304.499 234.022C306.56 234.959 306.879 235.867 307.494 235.867C310.499 238.867 328.999 257.822 328.999 261.522C329.499 262.045 329.499 262.677 329.499 263.022C329.499 263.022 329.999 263.74 329.999 264.808C329.999 265.876 330.449 267.027 330.999 267.367C331.549 267.707 331.999 269.282 331.999 270.867C331.999 272.452 332.385 273.988 332.858 274.28C335.945 276.188 336.024 310.237 332.948 313.317C332.426 313.84 331.999 315.5 331.999 317.008C331.999 318.516 331.549 320.027 330.999 320.367C330.449 320.707 329.999 321.858 329.999 322.926C329.999 323.994 329.549 324.867 328.999 324.867C328.449 324.867 327.999 325.712 327.999 326.745C327.999 327.777 327.324 329.182 326.499 329.867C325.674 330.552 324.999 331.694 324.999 332.406C324.999 333.118 324.603 333.85 324.119 334.034C323.635 334.217 321.947 336.4 320.369 338.884C315.66 346.297 304.488 355.313 294.499 359.764C292.849 360.499 290.718 361.498 289.763 361.984C288.808 362.47 286.985 362.867 285.713 362.867C284.44 362.867 282.892 363.374 282.273 363.993C281.461 364.805 264.494 365.088 221.422 365.009C188.573 364.948 161.514 364.716 161.291 364.492C161.067 364.269 160.923 350.755 160.969 334.462C161.024 315.299 160.679 304.137 159.991 302.853C159.132 301.248 157.892 300.867 153.523 300.867C150.55 300.867 147.839 300.417 147.499 299.867C147.159 299.317 145.668 298.867 144.186 298.867C141.633 298.867 130.569 295.268 126.42 293.088C120.748 290.109 105.394 282.867 104.749 282.867C104.337 282.867 103.999 311.612 103.999 346.745C103.999 399.983 104.23 410.814 105.386 411.773C106.416 412.628 127.656 412.804 188.136 412.458C274.363 411.965 284.92 411.62 288.65 409.176C289.934 408.335 291.667 407.909 292.503 408.23C293.339 408.551 295.03 408.434 296.261 407.97C297.492 407.506 301.199 406.333 304.499 405.364C307.799 404.394 312.407 402.761 314.738 401.734C317.07 400.707 319.441 399.867 320.008 399.867C320.575 399.867 322.821 398.742 324.999 397.367C327.177 395.992 329.333 394.867 329.791 394.867C330.248 394.867 331.523 394.028 332.623 393.002C333.724 391.977 335.722 390.557 337.062 389.847C340.757 387.89 347.716 382.046 354.291 375.38C363.955 365.581 372.698 352.209 378.493 338.367C379.414 336.167 380.579 333.586 381.083 332.631C381.587 331.676 381.999 330.015 381.999 328.94C381.999 327.865 382.449 326.707 382.999 326.367C383.549 326.027 383.999 324.455 383.999 322.873C383.999 321.291 384.415 318.904 384.922 317.568C387.342 311.205 387.952 286.901 385.97 275.867C385.327 272.292 384.451 267.342 384.023 264.867C381.643 251.122 370.484 229.371 359.654 217.367C357.669 215.167 356.035 213.068 356.022 212.703C356.009 212.338 351.476 208.288 345.948 203.703C337.094 196.359 327.554 189.931 322.999 188.239C322.174 187.932 319.699 186.878 317.499 185.896C296.331 176.446 280.765 174.188 248.499 175.886Z" fill="url(#paint0_linear_17_13)"/>
<defs>
<linearGradient id="paint0_linear_17_13" x1="225.5" y1="0" x2="225.5" y2="412.624" gradientUnits="userSpaceOnUse">
<stop stop-color="white"/>
<stop offset="1" stop-color="#363636"/>
</linearGradient>
</defs>
</svg>
